<svg xmlns="http://www.w3.org/2000/svg" width="56" height="56" viewBox="0 0 56 56" fill="none">
  <path d="M39.5958 45.5109C39.0266 40.9016 35.0967 37.3333 30.3333 37.3333H25.6667C20.9033 37.3333 16.9734 40.9016 16.4042 45.5109M39.5958 45.5109C45.2635 41.7503 49 35.3115 49 28C49 16.402 39.598 7 28 7C16.402 7 7 16.402 7 28C7 35.3115 10.7365 41.7503 16.4042 45.5109M39.5958 45.5109C36.273 47.7157 32.2865 49 28 49C23.7135 49 19.727 47.7157 16.4042 45.5109M35 23.3333C35 27.1993 31.866 30.3333 28 30.3333C24.134 30.3333 21 27.1993 21 23.3333C21 19.4673 24.134 16.3333 28 16.3333C31.866 16.3333 35 19.4673 35 23.3333Z" stroke="black" stroke-width="2" stroke-linecap="round" stroke-linejoin="round"/>
</svg>