<svg width="70" height="70" viewBox="0 0 70 70" fill="none" xmlns="http://www.w3.org/2000/svg">
<path d="M40.2548 55.3031C39.8199 55.3046 39.3903 55.2086 38.9974 55.0222C38.6045 54.8359 38.2584 54.5638 37.9844 54.2261L23.9258 36.762C23.4977 36.2412 23.2637 35.5879 23.2637 34.9137C23.2637 34.2395 23.4977 33.5862 23.9258 33.0654L38.4793 15.6013C38.9733 15.0069 39.6833 14.6331 40.4529 14.5621C41.2226 14.4912 41.9889 14.7289 42.5833 15.2229C43.1777 15.717 43.5515 16.4269 43.6225 17.1966C43.6935 17.9662 43.4558 18.7326 42.9617 19.327L29.9509 34.9283L42.5251 50.5296C42.881 50.9568 43.1071 51.4771 43.1766 52.0288C43.2462 52.5805 43.1562 53.1406 42.9173 53.6428C42.6785 54.1449 42.3008 54.5682 41.8289 54.8624C41.3571 55.1567 40.8108 55.3096 40.2548 55.3031Z" fill="#231F20"/>
</svg>
